<svg width="307" height="307" viewBox="0 0 307 307" fill="none" xmlns="http://www.w3.org/2000/svg">
<circle cx="153.5" cy="153.5" r="153.5" fill="#DEC0CF"/>
<path d="M61.6319 119.209C61.6319 121.649 60.7051 123.719 58.8515 125.418C57.0288 127.118 54.372 128.106 50.8811 128.384V133.621H47.9153V128.384C45.6601 128.261 43.5131 127.844 41.4741 127.133C39.4661 126.392 37.8596 125.465 36.6548 124.353L38.3694 120.738C39.4815 121.758 40.8872 122.607 42.5863 123.287C44.2854 123.936 46.0618 124.322 47.9153 124.445V113.695C45.7528 113.169 43.9456 112.598 42.4936 111.98C41.0725 111.362 39.8677 110.451 38.8791 109.246C37.9214 108.041 37.4426 106.466 37.4426 104.519C37.4426 102.079 38.323 100.009 40.0839 98.3098C41.8757 96.6107 44.4862 95.6221 47.9153 95.344V90.0613H50.8811V95.2977C52.642 95.3595 54.3411 95.6375 55.9784 96.1318C57.6467 96.6261 59.0832 97.2903 60.288 98.1244L58.7588 101.832C56.2565 100.256 53.6306 99.391 50.8811 99.2366V110.034C53.1363 110.59 54.9899 111.177 56.4418 111.795C57.8938 112.382 59.1141 113.277 60.1027 114.482C61.1221 115.656 61.6319 117.232 61.6319 119.209ZM41.9839 104.334C41.9839 105.662 42.4936 106.697 43.5131 107.439C44.5325 108.18 46 108.798 47.9153 109.292V99.2829C45.9382 99.5301 44.4553 100.117 43.4667 101.044C42.4782 101.94 41.9839 103.036 41.9839 104.334ZM50.8811 124.399C52.9509 124.214 54.4956 123.688 55.515 122.823C56.5654 121.928 57.0906 120.815 57.0906 119.487C57.0906 118.128 56.55 117.093 55.4687 116.382C54.4183 115.641 52.8891 114.992 50.8811 114.436V124.399ZM75.3636 95.6221V128.06H70.776V99.6536H63.4543V95.6221H75.3636ZM94.878 109.246C98.06 109.555 100.485 110.543 102.153 112.212C103.822 113.849 104.656 115.95 104.656 118.514C104.656 120.367 104.192 122.051 103.265 123.565C102.339 125.048 100.948 126.237 99.0949 127.133C97.2722 127.998 95.0325 128.431 92.3757 128.431C90.0587 128.431 87.8344 128.091 85.7028 127.411C83.5711 126.701 81.8257 125.727 80.4664 124.492L82.598 120.831C83.7102 121.881 85.1312 122.731 86.8613 123.38C88.5913 123.997 90.4294 124.306 92.3757 124.306C94.7853 124.306 96.6544 123.797 97.9828 122.777C99.3421 121.758 100.022 120.352 100.022 118.56C100.022 116.768 99.3575 115.378 98.0291 114.39C96.7007 113.401 94.6927 112.907 92.005 112.907H89.4099V109.663L97.5657 99.6536H81.9493V95.6221H103.358V98.7732L94.878 109.246ZM137.198 120.089H131.035V128.06H126.54V120.089H108.514V116.846L125.104 95.6221H130.108L114.214 116.104H126.679V109.061H131.035V116.104H137.198V120.089ZM182.82 103.5V128.06H178.788V110.126L169.613 125.279H167.667L158.584 110.08V128.06H154.506V103.5H159.094L168.733 120.089L178.649 103.5H182.82ZM212.563 103.5V128.06H208.114V107.392H197.549L197.271 112.86C197.116 116.166 196.823 118.931 196.39 121.155C195.958 123.349 195.247 125.11 194.259 126.438C193.27 127.766 191.895 128.431 190.135 128.431C189.331 128.431 188.42 128.292 187.4 128.013L187.679 124.26C188.08 124.353 188.451 124.399 188.791 124.399C190.026 124.399 190.953 123.858 191.571 122.777C192.189 121.696 192.591 120.414 192.776 118.931C192.961 117.448 193.131 115.332 193.286 112.582L193.703 103.5H212.563ZM234.186 103.268C236.565 103.268 238.697 103.793 240.581 104.844C242.465 105.894 243.933 107.361 244.983 109.246C246.065 111.13 246.605 113.308 246.605 115.78C246.605 118.251 246.065 120.445 244.983 122.36C243.933 124.245 242.465 125.712 240.581 126.762C238.697 127.813 236.565 128.338 234.186 128.338C232.425 128.338 230.803 127.998 229.32 127.318C227.869 126.639 226.633 125.65 225.613 124.353V137.05H221.165V103.5H225.428V107.392C226.417 106.033 227.668 105.014 229.181 104.334C230.695 103.623 232.363 103.268 234.186 103.268ZM233.815 124.445C235.391 124.445 236.797 124.09 238.032 123.38C239.299 122.638 240.288 121.619 240.998 120.321C241.739 118.993 242.11 117.479 242.11 115.78C242.11 114.081 241.739 112.582 240.998 111.285C240.288 109.956 239.299 108.937 238.032 108.226C236.797 107.516 235.391 107.161 233.815 107.161C232.271 107.161 230.865 107.531 229.599 108.273C228.363 108.983 227.374 109.987 226.633 111.285C225.922 112.582 225.567 114.081 225.567 115.78C225.567 117.479 225.922 118.993 226.633 120.321C227.343 121.619 228.332 122.638 229.599 123.38C230.865 124.09 232.271 124.445 233.815 124.445ZM277.864 124.167V133.76H273.694V128.06H253.165V133.76H248.949V124.167H250.246C251.822 124.075 252.903 122.962 253.49 120.831C254.077 118.699 254.478 115.687 254.695 111.795L255.065 103.5H274.111V124.167H277.864ZM258.773 112.119C258.649 115.208 258.386 117.772 257.985 119.811C257.614 121.819 256.919 123.271 255.9 124.167H269.662V107.392H259.004L258.773 112.119Z" fill="white"/>
<path d="M270.962 252.318C293.957 224.984 306.7 190.486 306.995 154.768L153.5 153.5L270.962 252.318Z" fill="#A3195B"/>
<path d="M206.056 179.731C206.056 180.646 205.709 181.423 205.014 182.06C204.33 182.697 203.334 183.068 202.025 183.172V185.136H200.913V183.172C200.067 183.126 199.262 182.969 198.497 182.703C197.744 182.425 197.142 182.077 196.69 181.66L197.333 180.305C197.75 180.687 198.277 181.006 198.914 181.26C199.551 181.504 200.218 181.649 200.913 181.695V177.663C200.102 177.466 199.424 177.252 198.88 177.02C198.347 176.789 197.895 176.447 197.524 175.995C197.165 175.543 196.985 174.952 196.985 174.223C196.985 173.307 197.316 172.531 197.976 171.894C198.648 171.257 199.627 170.886 200.913 170.782V168.801H202.025V170.764C202.685 170.788 203.322 170.892 203.936 171.077C204.562 171.263 205.101 171.512 205.552 171.825L204.979 173.215C204.041 172.624 203.056 172.299 202.025 172.242V176.29C202.871 176.499 203.566 176.719 204.11 176.951C204.655 177.171 205.112 177.507 205.483 177.959C205.865 178.399 206.056 178.99 206.056 179.731ZM198.688 174.153C198.688 174.651 198.88 175.039 199.262 175.317C199.644 175.595 200.194 175.827 200.913 176.012V172.259C200.171 172.352 199.615 172.572 199.244 172.919C198.874 173.255 198.688 173.667 198.688 174.153ZM202.025 181.677C202.801 181.608 203.38 181.411 203.763 181.087C204.156 180.751 204.353 180.334 204.353 179.835C204.353 179.326 204.151 178.938 203.745 178.671C203.351 178.393 202.778 178.15 202.025 177.941V181.677ZM211.206 170.886V183.05H209.485V172.398H206.74V170.886H211.206ZM218.524 175.995C219.717 176.111 220.626 176.482 221.252 177.107C221.878 177.721 222.19 178.509 222.19 179.471C222.19 180.166 222.017 180.797 221.669 181.365C221.321 181.921 220.8 182.367 220.105 182.703C219.422 183.027 218.582 183.189 217.585 183.189C216.716 183.189 215.882 183.062 215.083 182.807C214.284 182.541 213.629 182.176 213.119 181.712L213.919 180.339C214.336 180.733 214.869 181.052 215.517 181.295C216.166 181.527 216.855 181.643 217.585 181.643C218.489 181.643 219.19 181.452 219.688 181.069C220.198 180.687 220.453 180.16 220.453 179.488C220.453 178.816 220.204 178.295 219.705 177.924C219.207 177.553 218.454 177.368 217.446 177.368H216.473V176.151L219.532 172.398H213.675V170.886H221.704V172.068L218.524 175.995ZM224.975 180.774C225.3 180.774 225.566 180.89 225.775 181.121C225.995 181.342 226.105 181.62 226.105 181.956C226.105 182.129 226.082 182.297 226.035 182.459C226.001 182.622 225.925 182.871 225.809 183.207L224.993 185.622H223.898L224.541 183.033C224.321 182.952 224.141 182.819 224.002 182.633C223.875 182.436 223.811 182.21 223.811 181.956C223.811 181.608 223.921 181.324 224.141 181.104C224.361 180.884 224.639 180.774 224.975 180.774ZM238.178 180.061H235.867V183.05H234.181V180.061H227.422V178.845L233.643 170.886H235.519L229.559 178.567H234.234V175.926H235.867V178.567H238.178V180.061ZM255.286 173.84V183.05H253.774V176.325L250.334 182.008H249.604L246.198 176.308V183.05H244.669V173.84H246.389L250.003 180.061L253.722 173.84H255.286ZM266.44 173.84V183.05H264.772V175.3H260.81L260.705 177.351C260.647 178.59 260.537 179.627 260.375 180.461C260.213 181.284 259.947 181.944 259.576 182.442C259.205 182.94 258.69 183.189 258.029 183.189C257.728 183.189 257.386 183.137 257.004 183.033L257.108 181.625C257.259 181.66 257.398 181.677 257.525 181.677C257.989 181.677 258.336 181.475 258.568 181.069C258.8 180.664 258.95 180.183 259.02 179.627C259.089 179.071 259.153 178.277 259.211 177.246L259.367 173.84H266.44ZM274.549 173.753C275.441 173.753 276.24 173.95 276.947 174.344C277.653 174.738 278.204 175.288 278.598 175.995C279.003 176.702 279.206 177.518 279.206 178.445C279.206 179.372 279.003 180.195 278.598 180.913C278.204 181.62 277.653 182.17 276.947 182.564C276.24 182.958 275.441 183.155 274.549 183.155C273.888 183.155 273.28 183.027 272.724 182.772C272.179 182.517 271.716 182.147 271.334 181.66V186.422H269.666V173.84H271.264V175.3C271.635 174.79 272.104 174.408 272.672 174.153C273.239 173.887 273.865 173.753 274.549 173.753ZM274.41 181.695C275 181.695 275.528 181.562 275.991 181.295C276.466 181.017 276.837 180.635 277.103 180.148C277.381 179.65 277.52 179.082 277.52 178.445C277.52 177.808 277.381 177.246 277.103 176.76C276.837 176.262 276.466 175.879 275.991 175.613C275.528 175.346 275 175.213 274.41 175.213C273.83 175.213 273.303 175.352 272.828 175.63C272.365 175.897 271.994 176.273 271.716 176.76C271.45 177.246 271.316 177.808 271.316 178.445C271.316 179.082 271.45 179.65 271.716 180.148C271.983 180.635 272.353 181.017 272.828 181.295C273.303 181.562 273.83 181.695 274.41 181.695ZM290.928 181.591V185.188H289.364V183.05H281.666V185.188H280.084V181.591H280.571C281.162 181.556 281.567 181.139 281.787 180.339C282.008 179.54 282.158 178.411 282.239 176.951L282.378 173.84H289.52V181.591H290.928ZM283.768 177.072C283.722 178.231 283.624 179.193 283.473 179.957C283.334 180.71 283.073 181.255 282.691 181.591H287.852V175.3H283.855L283.768 177.072Z" fill="white"/>
</svg>
