<svg width="85" height="85" viewBox="0 0 85 85" fill="none" xmlns="http://www.w3.org/2000/svg">
<path d="M84.8999 0H0V84.8999H84.8999V0Z" fill="#E9C8AC"/>
<path d="M50.377 0C50.377 20.6416 72.9332 24.5905 72.9332 24.5905L62.9015 46.4287L84.999 42.5796V0H50.377Z" fill="#62A060"/>
<path d="M42.2207 23.2346C43.2179 22.0579 44.215 20.9011 45.2322 19.7245C41.0839 16.9124 36.5567 15.4565 31.87 15.4565C25.867 15.4565 20.1431 17.8498 15.1572 22.377C16.3937 23.9126 17.4707 25.0494 18.1488 25.8272C22.317 22.018 27.0237 20.0236 31.87 20.0236C35.4598 20.0037 38.95 21.1205 42.2207 23.2346Z" fill="#A3195B"/>
<path d="M85.0008 42.3402C85.0008 64.2582 72.4363 74.6888 57.0797 74.6888C41.7231 74.6888 29.2783 60.1698 29.2783 38.2717L85.0008 42.3402Z" fill="#A3195B"/>
</svg>
