<svg width="319" height="413" viewBox="0 0 319 413" fill="none" xmlns="http://www.w3.org/2000/svg">
<circle opacity="0.2" cx="139.5" cy="139.5" r="139.5" fill="#A3195B"/>
<path d="M79.2089 68.288C80.3449 68.56 81.2009 69.048 81.7769 69.752C82.3689 70.44 82.6649 71.328 82.6649 72.416C82.6649 73.872 82.1289 75 81.0569 75.8C80.0009 76.6 78.4569 77 76.4249 77H68.7449V60.2H75.9689C77.8089 60.2 79.2409 60.576 80.2649 61.328C81.3049 62.064 81.8249 63.128 81.8249 64.52C81.8249 65.432 81.5929 66.208 81.1289 66.848C80.6809 67.488 80.0409 67.968 79.2089 68.288ZM71.1209 67.592H75.8009C76.9689 67.592 77.8569 67.36 78.4649 66.896C79.0889 66.432 79.4009 65.752 79.4009 64.856C79.4009 63.96 79.0889 63.28 78.4649 62.816C77.8409 62.336 76.9529 62.096 75.8009 62.096H71.1209V67.592ZM76.3769 75.104C78.9529 75.104 80.2409 74.144 80.2409 72.224C80.2409 71.264 79.9129 70.56 79.2569 70.112C78.6169 69.648 77.6569 69.416 76.3769 69.416H71.1209V75.104H76.3769ZM86.2906 64.28H88.5946V73.544L96.3946 64.28H98.4826V77H96.1786V67.736L88.4026 77H86.2906V64.28ZM102.955 64.28H105.259V69.68H112.507V64.28H114.811V77H112.507V71.672H105.259V77H102.955V64.28ZM124.739 77.144C123.475 77.144 122.339 76.864 121.331 76.304C120.323 75.744 119.531 74.976 118.955 74C118.395 73.008 118.115 71.888 118.115 70.64C118.115 69.392 118.395 68.28 118.955 67.304C119.531 66.312 120.323 65.544 121.331 65C122.339 64.44 123.475 64.16 124.739 64.16C126.003 64.16 127.131 64.44 128.123 65C129.131 65.544 129.915 66.312 130.475 67.304C131.051 68.28 131.339 69.392 131.339 70.64C131.339 71.888 131.051 73.008 130.475 74C129.915 74.976 129.131 75.744 128.123 76.304C127.131 76.864 126.003 77.144 124.739 77.144ZM124.739 75.128C125.555 75.128 126.283 74.944 126.923 74.576C127.579 74.192 128.091 73.664 128.459 72.992C128.827 72.304 129.011 71.52 129.011 70.64C129.011 69.76 128.827 68.984 128.459 68.312C128.091 67.624 127.579 67.096 126.923 66.728C126.283 66.36 125.555 66.176 124.739 66.176C123.923 66.176 123.187 66.36 122.531 66.728C121.891 67.096 121.379 67.624 120.995 68.312C120.627 68.984 120.443 69.76 120.443 70.64C120.443 71.52 120.627 72.304 120.995 72.992C121.379 73.664 121.891 74.192 122.531 74.576C123.187 74.944 123.923 75.128 124.739 75.128ZM147.508 74.984V79.952H145.348V77H134.716V79.952H132.532V74.984H133.204C134.02 74.936 134.58 74.36 134.884 73.256C135.188 72.152 135.396 70.592 135.508 68.576L135.7 64.28H145.564V74.984H147.508ZM137.62 68.744C137.556 70.344 137.42 71.672 137.212 72.728C137.02 73.768 136.66 74.52 136.132 74.984H143.26V66.296H137.74L137.62 68.744ZM162.005 70.712C162.005 70.888 161.989 71.12 161.957 71.408H151.637C151.781 72.528 152.269 73.432 153.101 74.12C153.949 74.792 154.997 75.128 156.245 75.128C157.765 75.128 158.989 74.616 159.917 73.592L161.189 75.08C160.613 75.752 159.893 76.264 159.029 76.616C158.181 76.968 157.229 77.144 156.173 77.144C154.829 77.144 153.637 76.872 152.597 76.328C151.557 75.768 150.749 74.992 150.173 74C149.613 73.008 149.333 71.888 149.333 70.64C149.333 69.408 149.605 68.296 150.149 67.304C150.709 66.312 151.469 65.544 152.429 65C153.405 64.44 154.501 64.16 155.717 64.16C156.933 64.16 158.013 64.44 158.957 65C159.917 65.544 160.661 66.312 161.189 67.304C161.733 68.296 162.005 69.432 162.005 70.712ZM155.717 66.104C154.613 66.104 153.685 66.44 152.933 67.112C152.197 67.784 151.765 68.664 151.637 69.752H159.797C159.669 68.68 159.229 67.808 158.477 67.136C157.741 66.448 156.821 66.104 155.717 66.104ZM176.289 64.28V77H173.985V66.296H168.513L168.369 69.128C168.289 70.84 168.137 72.272 167.913 73.424C167.689 74.56 167.321 75.472 166.809 76.16C166.297 76.848 165.585 77.192 164.673 77.192C164.257 77.192 163.785 77.12 163.257 76.976L163.401 75.032C163.609 75.08 163.801 75.104 163.977 75.104C164.617 75.104 165.097 74.824 165.417 74.264C165.737 73.704 165.945 73.04 166.041 72.272C166.137 71.504 166.225 70.408 166.305 68.984L166.521 64.28H176.289ZM186.48 68.6C188.08 68.616 189.304 68.984 190.152 69.704C191 70.424 191.424 71.44 191.424 72.752C191.424 74.128 190.96 75.192 190.032 75.944C189.12 76.68 187.808 77.04 186.096 77.024L180.744 77V64.28H183.048V68.576L186.48 68.6ZM193.32 64.28H195.624V77H193.32V64.28ZM185.928 75.272C186.968 75.288 187.752 75.08 188.28 74.648C188.824 74.216 189.096 73.576 189.096 72.728C189.096 71.896 188.832 71.288 188.304 70.904C187.776 70.52 186.984 70.32 185.928 70.304L183.048 70.256V75.248L185.928 75.272ZM58.2828 99.28H60.5868V108.544L68.3868 99.28H70.4748V112H68.1708V102.736L60.3948 112H58.2828V99.28ZM93.1762 99.28V112H90.8722V101.296H83.6962V112H81.3922V99.28H93.1762ZM104.378 99.16C105.61 99.16 106.714 99.432 107.69 99.976C108.666 100.52 109.426 101.28 109.97 102.256C110.53 103.232 110.81 104.36 110.81 105.64C110.81 106.92 110.53 108.056 109.97 109.048C109.426 110.024 108.666 110.784 107.69 111.328C106.714 111.872 105.61 112.144 104.378 112.144C103.466 112.144 102.626 111.968 101.858 111.616C101.106 111.264 100.466 110.752 99.9383 110.08V116.656H97.6343V99.28H99.8423V101.296C100.354 100.592 101.002 100.064 101.786 99.712C102.57 99.344 103.434 99.16 104.378 99.16ZM104.186 110.128C105.002 110.128 105.73 109.944 106.37 109.576C107.026 109.192 107.538 108.664 107.906 107.992C108.29 107.304 108.482 106.52 108.482 105.64C108.482 104.76 108.29 103.984 107.906 103.312C107.538 102.624 107.026 102.096 106.37 101.728C105.73 101.36 105.002 101.176 104.186 101.176C103.386 101.176 102.658 101.368 102.002 101.752C101.362 102.12 100.85 102.64 100.466 103.312C100.098 103.984 99.9143 104.76 99.9143 105.64C99.9143 106.52 100.098 107.304 100.466 107.992C100.834 108.664 101.346 109.192 102.002 109.576C102.658 109.944 103.386 110.128 104.186 110.128ZM119.606 112.144C118.342 112.144 117.206 111.864 116.198 111.304C115.19 110.744 114.398 109.976 113.822 109C113.262 108.008 112.982 106.888 112.982 105.64C112.982 104.392 113.262 103.28 113.822 102.304C114.398 101.312 115.19 100.544 116.198 100C117.206 99.44 118.342 99.16 119.606 99.16C120.87 99.16 121.998 99.44 122.99 100C123.998 100.544 124.782 101.312 125.342 102.304C125.918 103.28 126.206 104.392 126.206 105.64C126.206 106.888 125.918 108.008 125.342 109C124.782 109.976 123.998 110.744 122.99 111.304C121.998 111.864 120.87 112.144 119.606 112.144ZM119.606 110.128C120.422 110.128 121.15 109.944 121.79 109.576C122.446 109.192 122.958 108.664 123.326 107.992C123.694 107.304 123.878 106.52 123.878 105.64C123.878 104.76 123.694 103.984 123.326 103.312C122.958 102.624 122.446 102.096 121.79 101.728C121.15 101.36 120.422 101.176 119.606 101.176C118.79 101.176 118.054 101.36 117.398 101.728C116.758 102.096 116.246 102.624 115.862 103.312C115.494 103.984 115.31 104.76 115.31 105.64C115.31 106.52 115.494 107.304 115.862 107.992C116.246 108.664 116.758 109.192 117.398 109.576C118.054 109.944 118.79 110.128 119.606 110.128ZM142.375 109.984V114.952H140.215V112H129.583V114.952H127.399V109.984H128.071C128.887 109.936 129.447 109.36 129.751 108.256C130.055 107.152 130.263 105.592 130.375 103.576L130.567 99.28H140.431V109.984H142.375ZM132.487 103.744C132.423 105.344 132.287 106.672 132.079 107.728C131.887 108.768 131.527 109.52 130.999 109.984H138.127V101.296H132.607L132.487 103.744ZM149.913 99.16C151.673 99.16 153.017 99.592 153.945 100.456C154.889 101.32 155.361 102.608 155.361 104.32V112H153.177V110.32C152.793 110.912 152.241 111.368 151.521 111.688C150.817 111.992 149.977 112.144 149.001 112.144C147.577 112.144 146.433 111.8 145.569 111.112C144.721 110.424 144.297 109.52 144.297 108.4C144.297 107.28 144.705 106.384 145.521 105.712C146.337 105.024 147.633 104.68 149.409 104.68H153.057V104.224C153.057 103.232 152.769 102.472 152.193 101.944C151.617 101.416 150.769 101.152 149.649 101.152C148.897 101.152 148.161 101.28 147.441 101.536C146.721 101.776 146.113 102.104 145.617 102.52L144.657 100.792C145.313 100.264 146.097 99.864 147.009 99.592C147.921 99.304 148.889 99.16 149.913 99.16ZM149.385 110.368C150.265 110.368 151.025 110.176 151.665 109.792C152.305 109.392 152.769 108.832 153.057 108.112V106.336H149.505C147.553 106.336 146.577 106.992 146.577 108.304C146.577 108.944 146.825 109.448 147.321 109.816C147.817 110.184 148.505 110.368 149.385 110.368ZM168.173 105.4C169.821 105.816 170.645 106.848 170.645 108.496C170.645 109.616 170.221 110.48 169.373 111.088C168.541 111.696 167.293 112 165.629 112H159.509V99.28H165.413C166.917 99.28 168.093 99.568 168.941 100.144C169.789 100.704 170.213 101.504 170.213 102.544C170.213 103.216 170.029 103.8 169.661 104.296C169.309 104.776 168.813 105.144 168.173 105.4ZM161.765 104.752H165.221C166.101 104.752 166.765 104.592 167.213 104.272C167.677 103.952 167.909 103.488 167.909 102.88C167.909 101.664 167.013 101.056 165.221 101.056H161.765V104.752ZM165.461 110.224C166.421 110.224 167.141 110.072 167.621 109.768C168.101 109.464 168.341 108.992 168.341 108.352C168.341 107.696 168.117 107.208 167.669 106.888C167.237 106.568 166.549 106.408 165.605 106.408H161.765V110.224H165.461ZM187.836 109.984V115.048H185.652V112H174.252V99.28H176.556V109.984H183.516V99.28H185.82V109.984H187.836ZM196.558 103.6C198.158 103.616 199.382 103.984 200.23 104.704C201.078 105.424 201.502 106.44 201.502 107.752C201.502 109.128 201.038 110.192 200.11 110.944C199.198 111.68 197.886 112.04 196.174 112.024L190.822 112V99.28H193.126V103.576L196.558 103.6ZM203.398 99.28H205.702V112H203.398V99.28ZM196.006 110.272C197.046 110.288 197.83 110.08 198.358 109.648C198.902 109.216 199.174 108.576 199.174 107.728C199.174 106.896 198.91 106.288 198.382 105.904C197.854 105.52 197.062 105.32 196.006 105.304L193.126 105.256V110.248L196.006 110.272Z" fill="#A3195B"/>
<circle opacity="0.2" cx="179.5" cy="273.5" r="139.5" fill="#62A060"/>
<path d="M101.704 198.005L96.2387 214.706H92.0866L88.4124 203.396L84.6173 214.706H80.4882L75 198.005H79.0082L82.7802 209.742L86.7193 198.005H90.2956L94.1137 209.84L98.0067 198.005H101.704Z" fill="#02090F"/>
<path d="M112.013 198.006H108.148V214.712H112.013V198.006Z" fill="#02090F"/>
<path d="M135.589 198.006V214.706H132.416L124.089 204.565V214.706H120.271V198.006H123.467L131.771 208.147V198.006H135.589Z" fill="#02090F"/>
<path d="M156.235 211.602V214.706H143.848V198.006H156.235V201.104H147.689V204.732H156.235V207.738H147.689V211.602H156.235Z" fill="#02090F"/>
<path d="M179.357 214.706L179.334 204.686L174.416 212.944H172.676L167.781 204.899V214.706H164.153V198.006H167.355L173.609 208.383L179.76 198.006H182.939L182.985 214.706H179.357Z" fill="#02090F"/>
<path d="M202.243 211.124H194.486L193.006 214.706H189.044L196.49 198H200.308L207.778 214.706H203.723L202.243 211.124ZM201.028 208.193L198.379 201.795L195.73 208.193H201.028Z" fill="#02090F"/>
<path d="M216.438 201.15H211.094V198.006H225.652V201.15H220.308V214.706H216.438V201.15Z" fill="#02090F"/>
<path d="M244.41 211.602V214.706H232.022V198.006H244.41V201.104H235.869V204.732H244.41V207.738H235.869V211.602H244.41Z" fill="#02090F"/>
<path d="M129.608 309.2V326H127.256V311.288H117.512V326H115.136V309.2H129.608ZM139.91 326.144C138.646 326.144 137.51 325.864 136.502 325.304C135.494 324.744 134.702 323.976 134.126 323C133.566 322.008 133.286 320.888 133.286 319.64C133.286 318.392 133.566 317.28 134.126 316.304C134.702 315.312 135.494 314.544 136.502 314C137.51 313.44 138.646 313.16 139.91 313.16C141.174 313.16 142.302 313.44 143.294 314C144.302 314.544 145.086 315.312 145.646 316.304C146.222 317.28 146.51 318.392 146.51 319.64C146.51 320.888 146.222 322.008 145.646 323C145.086 323.976 144.302 324.744 143.294 325.304C142.302 325.864 141.174 326.144 139.91 326.144ZM139.91 324.128C140.726 324.128 141.454 323.944 142.094 323.576C142.75 323.192 143.262 322.664 143.63 321.992C143.998 321.304 144.182 320.52 144.182 319.64C144.182 318.76 143.998 317.984 143.63 317.312C143.262 316.624 142.75 316.096 142.094 315.728C141.454 315.36 140.726 315.176 139.91 315.176C139.094 315.176 138.358 315.36 137.702 315.728C137.062 316.096 136.55 316.624 136.166 317.312C135.798 317.984 135.614 318.76 135.614 319.64C135.614 320.52 135.798 321.304 136.166 321.992C136.55 322.664 137.062 323.192 137.702 323.576C138.358 323.944 139.094 324.128 139.91 324.128ZM154.781 320.624H152.141V326H149.837V313.28H152.141V318.656H154.829L158.957 313.28H161.429L156.605 319.4L161.765 326H159.053L154.781 320.624ZM174.807 313.28L168.639 327.272C168.095 328.568 167.455 329.48 166.719 330.008C165.999 330.536 165.127 330.8 164.103 330.8C163.479 330.8 162.871 330.696 162.279 330.488C161.703 330.296 161.223 330.008 160.839 329.624L161.823 327.896C162.479 328.52 163.239 328.832 164.103 328.832C164.663 328.832 165.127 328.68 165.495 328.376C165.879 328.088 166.223 327.584 166.527 326.864L166.935 325.976L161.319 313.28H163.719L168.159 323.456L172.551 313.28H174.807ZM188.95 313.28V326H186.646V315.296H179.47V326H177.166V313.28H188.95ZM197.944 313.16C199.704 313.16 201.048 313.592 201.976 314.456C202.92 315.32 203.392 316.608 203.392 318.32V326H201.208V324.32C200.824 324.912 200.272 325.368 199.552 325.688C198.848 325.992 198.008 326.144 197.032 326.144C195.608 326.144 194.464 325.8 193.6 325.112C192.752 324.424 192.328 323.52 192.328 322.4C192.328 321.28 192.736 320.384 193.552 319.712C194.368 319.024 195.664 318.68 197.44 318.68H201.088V318.224C201.088 317.232 200.8 316.472 200.224 315.944C199.648 315.416 198.8 315.152 197.68 315.152C196.928 315.152 196.192 315.28 195.472 315.536C194.752 315.776 194.144 316.104 193.648 316.52L192.688 314.792C193.344 314.264 194.128 313.864 195.04 313.592C195.952 313.304 196.92 313.16 197.944 313.16ZM197.416 324.368C198.296 324.368 199.056 324.176 199.696 323.792C200.336 323.392 200.8 322.832 201.088 322.112V320.336H197.536C195.584 320.336 194.608 320.992 194.608 322.304C194.608 322.944 194.856 323.448 195.352 323.816C195.848 324.184 196.536 324.368 197.416 324.368ZM217.021 315.296H212.365V326H210.061V315.296H205.405V313.28H217.021V315.296ZM230.31 319.712C230.31 319.888 230.294 320.12 230.262 320.408H219.942C220.086 321.528 220.574 322.432 221.406 323.12C222.254 323.792 223.302 324.128 224.55 324.128C226.07 324.128 227.294 323.616 228.222 322.592L229.494 324.08C228.918 324.752 228.198 325.264 227.334 325.616C226.486 325.968 225.534 326.144 224.478 326.144C223.134 326.144 221.942 325.872 220.902 325.328C219.862 324.768 219.054 323.992 218.478 323C217.918 322.008 217.638 320.888 217.638 319.64C217.638 318.408 217.91 317.296 218.454 316.304C219.014 315.312 219.774 314.544 220.734 314C221.71 313.44 222.806 313.16 224.022 313.16C225.238 313.16 226.318 313.44 227.262 314C228.222 314.544 228.966 315.312 229.494 316.304C230.038 317.296 230.31 318.432 230.31 319.712ZM224.022 315.104C222.918 315.104 221.99 315.44 221.238 316.112C220.502 316.784 220.07 317.664 219.942 318.752H228.102C227.974 317.68 227.534 316.808 226.782 316.136C226.046 315.448 225.126 315.104 224.022 315.104ZM244.593 313.28V326H242.289V315.296H236.817L236.673 318.128C236.593 319.84 236.441 321.272 236.217 322.424C235.993 323.56 235.625 324.472 235.113 325.16C234.601 325.848 233.889 326.192 232.977 326.192C232.561 326.192 232.089 326.12 231.561 325.976L231.705 324.032C231.913 324.08 232.105 324.104 232.281 324.104C232.921 324.104 233.401 323.824 233.721 323.264C234.041 322.704 234.249 322.04 234.345 321.272C234.441 320.504 234.529 319.408 234.609 317.984L234.825 313.28H244.593ZM249.048 313.28H251.352V322.544L259.152 313.28H261.24V326H258.936V316.736L251.16 326H249.048V313.28ZM167.959 354.4C169.607 354.816 170.431 355.848 170.431 357.496C170.431 358.616 170.007 359.48 169.159 360.088C168.327 360.696 167.079 361 165.415 361H159.295V348.28H165.199C166.703 348.28 167.879 348.568 168.727 349.144C169.575 349.704 169.999 350.504 169.999 351.544C169.999 352.216 169.815 352.8 169.447 353.296C169.095 353.776 168.599 354.144 167.959 354.4ZM161.551 353.752H165.007C165.887 353.752 166.551 353.592 166.999 353.272C167.463 352.952 167.695 352.488 167.695 351.88C167.695 350.664 166.799 350.056 165.007 350.056H161.551V353.752ZM165.247 359.224C166.207 359.224 166.927 359.072 167.407 358.768C167.887 358.464 168.127 357.992 168.127 357.352C168.127 356.696 167.903 356.208 167.455 355.888C167.023 355.568 166.335 355.408 165.391 355.408H161.551V359.224H165.247ZM174.037 348.28H176.341V357.544L184.141 348.28H186.229V361H183.925V351.736L176.149 361H174.037V348.28ZM190.701 348.28H193.005V353.68H200.253V348.28H202.557V361H200.253V355.672H193.005V361H190.701V348.28ZM211.573 348.16C213.333 348.16 214.677 348.592 215.605 349.456C216.549 350.32 217.021 351.608 217.021 353.32V361H214.837V359.32C214.453 359.912 213.901 360.368 213.181 360.688C212.477 360.992 211.637 361.144 210.661 361.144C209.237 361.144 208.093 360.8 207.229 360.112C206.381 359.424 205.957 358.52 205.957 357.4C205.957 356.28 206.365 355.384 207.181 354.712C207.997 354.024 209.293 353.68 211.069 353.68H214.717V353.224C214.717 352.232 214.429 351.472 213.853 350.944C213.277 350.416 212.429 350.152 211.309 350.152C210.557 350.152 209.821 350.28 209.101 350.536C208.381 350.776 207.773 351.104 207.277 351.52L206.317 349.792C206.973 349.264 207.757 348.864 208.669 348.592C209.581 348.304 210.549 348.16 211.573 348.16ZM211.045 359.368C211.925 359.368 212.685 359.176 213.325 358.792C213.965 358.392 214.429 357.832 214.717 357.112V355.336H211.165C209.213 355.336 208.237 355.992 208.237 357.304C208.237 357.944 208.485 358.448 208.981 358.816C209.477 359.184 210.165 359.368 211.045 359.368Z" fill="#62A060"/>
</svg>
