<svg width="34" height="34" viewBox="0 0 34 34" fill="none" xmlns="http://www.w3.org/2000/svg">
<path d="M34 -0.000244141L0 -0.000244141L0 33.9997H34V-0.000244141Z" fill="#E9C8AC"/>
<path d="M20.1768 -0.000488281C20.1768 8.26589 29.2099 9.84728 29.2099 9.84728L25.1925 18.5929L34.0419 17.0514V-0.000488281L20.1768 -0.000488281Z" fill="#62A060"/>
<path d="M16.9085 9.3053C17.3078 8.83407 17.7071 8.37084 18.1145 7.89961C16.4532 6.77347 14.6402 6.19043 12.7633 6.19043C10.3592 6.19043 8.06702 7.14885 6.07031 8.96186C6.5655 9.57685 6.99679 10.0321 7.26834 10.3436C8.93759 8.8181 10.8225 8.01942 12.7633 8.01942C14.2009 8.01143 15.5986 8.45869 16.9085 9.3053Z" fill="#A3195B"/>
<path d="M34.0398 16.9562C34.0398 25.7338 29.0081 29.9109 22.8583 29.9109C16.7084 29.9109 11.7246 24.0965 11.7246 15.3269L34.0398 16.9562Z" fill="#A3195B"/>
</svg>
