<svg width="45" height="44" viewBox="0 0 45 44" fill="none" xmlns="http://www.w3.org/2000/svg">
<path d="M27.9903 9.17184L24.7502 9.1665C21.11 9.1665 18.7575 11.6458 18.7575 15.4831V18.3955H15.4997C15.2182 18.3955 14.9902 18.6299 14.9902 18.9191V23.1388C14.9902 23.428 15.2185 23.6622 15.4997 23.6622H18.7575V34.3098C18.7575 34.599 18.9855 34.8332 19.267 34.8332H23.5175C23.799 34.8332 24.027 34.5987 24.027 34.3098V23.6622H27.8362C28.1177 23.6622 28.3456 23.428 28.3456 23.1388L28.3472 18.9191C28.3472 18.7803 28.2934 18.6473 28.198 18.549C28.1026 18.4508 27.9726 18.3955 27.8375 18.3955H24.027V15.9266C24.027 14.74 24.3023 14.1376 25.8071 14.1376L27.9898 14.1368C28.271 14.1368 28.499 13.9024 28.499 13.6134V9.6952C28.499 9.40655 28.2713 9.17238 27.9903 9.17184Z" fill="#A3195B"/>
<rect x="1.5" y="1" width="42" height="42" rx="7" stroke="#A3195B" stroke-width="2"/>
</svg>
