<svg width="66" height="66" viewBox="0 0 66 66" fill="none" xmlns="http://www.w3.org/2000/svg">
<path fill-rule="evenodd" clip-rule="evenodd" d="M61.6113 30.8956C61.6113 44.0928 48.7146 54.7912 32.8057 54.7912C30.8815 54.7912 29.0015 54.6347 27.183 54.3362C25.5813 54.1812 24.6302 54.3295 22.9884 54.8373C22.3813 55.0251 21.6721 55.4044 20.8592 55.839C19.0381 56.8128 16.6971 58.0645 13.8198 58.0645C13.7656 58.0645 13.9479 57.884 14.2598 57.5751C15.2928 56.5522 17.7479 54.1211 17.7479 52.1724V51.2704C9.50031 47.067 4 39.5142 4 30.8956C4 17.6984 16.8967 7 32.8057 7C48.7146 7 61.6113 17.6984 61.6113 30.8956Z" fill="#A3195B"/>
</svg>
