<svg width="36" height="36" viewBox="0 0 36 36" fill="none" xmlns="http://www.w3.org/2000/svg">
<circle cx="18" cy="18" r="18" fill="#A3195B"/>
<g clip-path="url(#clip0)">
<path d="M26.8202 18.5005C26.8203 18.3265 26.7164 18.1691 26.5565 18.1007L12.7177 12.1697C12.5594 12.1018 12.3759 12.1338 12.2499 12.2512C12.1238 12.3686 12.0789 12.5494 12.1353 12.7121L14.1427 18.5005L12.1353 24.2889C12.0805 24.4467 12.1211 24.6215 12.2386 24.739C12.2423 24.7426 12.246 24.7462 12.2498 24.7497C12.3759 24.8671 12.5593 24.8991 12.7177 24.8313L26.5565 18.9004C26.7165 18.8319 26.8202 18.6746 26.8202 18.5005Z" fill="white"/>
<path d="M26.8199 18.5001L14.1425 18.5L12.135 24.2884C12.0803 24.4463 12.1209 24.621 12.2384 24.7385C12.242 24.7422 12.2457 24.7458 12.2496 24.7493C12.3756 24.8667 12.5591 24.8987 12.7174 24.8308L26.5562 18.9C26.7161 18.8314 26.8199 18.6741 26.8199 18.5001Z" fill="white"/>
</g>
<defs>
<clipPath id="clip0">
<rect width="14.8494" height="14.8494" fill="white" transform="translate(16.5 8) rotate(45)"/>
</clipPath>
</defs>
</svg>
