<svg width="66" height="66" viewBox="0 0 66 66" fill="none" xmlns="http://www.w3.org/2000/svg">
<path fill-rule="evenodd" clip-rule="evenodd" d="M47.2301 56.6185C50.563 58.0766 51.8128 55.0214 51.8128 55.0214L60.6312 10.7213C60.5618 7.73557 56.5345 9.5409 56.5345 9.5409L7.16553 28.9135C7.16553 28.9135 4.80471 29.7468 5.01302 31.2049C5.22132 32.6631 7.09609 33.3574 7.09609 33.3574L19.5251 37.5236C19.5251 37.5236 23.2747 49.8137 24.0385 52.1746C24.7328 54.466 25.3577 54.5354 25.3577 54.5354C26.0521 54.8131 26.677 54.3271 26.677 54.3271L34.7316 47.0363L47.2301 56.6185ZM49.3821 18.5676C49.3821 18.5676 51.118 17.5261 51.0486 18.5676C51.0486 18.5676 51.3263 18.7065 50.4236 19.6786C49.5904 20.5118 29.94 38.1486 27.3015 40.5094C27.0932 40.6483 26.9543 40.8566 26.9543 41.1343L26.1905 47.6613C26.0516 48.3557 25.149 48.4251 24.9407 47.8002L21.6772 37.107C21.5383 36.6904 21.6772 36.2044 22.0938 35.9266L49.3821 18.5676Z" fill="#A3195B"/>
</svg>
