<svg width="54" height="54" viewBox="0 0 54 54" fill="none" xmlns="http://www.w3.org/2000/svg">
<path d="M40.8512 12.7709C37.1587 8.86848 32.0544 6.75 26.8415 6.75C15.764 6.75 6.8586 16.0044 6.96721 27.2658C6.96721 30.8338 7.94463 34.2902 9.57367 37.4122L6.75 48.0046L17.2845 45.2171C20.2167 46.8896 23.4748 47.6701 26.7329 47.6701C37.7017 47.6701 46.6071 38.4157 46.6071 27.1543C46.6071 21.6909 44.5437 16.5619 40.8512 12.7709ZM26.8415 44.2136C23.9092 44.2136 20.9769 43.4332 18.4791 41.8722L17.8275 41.5377L11.5285 43.2102L13.1576 36.8547L12.7231 36.1857C7.94463 28.2693 10.2253 17.7884 18.0447 12.8824C25.8641 7.97649 35.9641 10.318 40.7426 18.3459C45.5211 26.3738 43.2405 36.7432 35.4211 41.6492C32.9232 43.3217 29.8824 44.2136 26.8415 44.2136ZM36.3985 31.8373L35.2039 31.2798C35.2039 31.2798 33.4662 30.4993 32.3802 29.9418C32.2716 29.9418 32.163 29.8303 32.0544 29.8303C31.7286 29.8303 31.5114 29.9418 31.2942 30.0533C31.2942 30.0533 31.1856 30.1648 29.6651 31.9488C29.5565 32.1718 29.3393 32.2833 29.1221 32.2833H29.0135C28.9049 32.2833 28.6877 32.1718 28.5791 32.0603L28.0361 31.8373C26.8415 31.2798 25.7555 30.6108 24.8866 29.7188C24.6694 29.4958 24.3436 29.2728 24.1264 29.0498C23.3662 28.2693 22.606 27.3773 22.063 26.3738L21.9544 26.1508C21.8458 26.0393 21.8458 25.9278 21.7372 25.7048C21.7372 25.4818 21.7372 25.2588 21.8458 25.1473C21.8458 25.1473 22.2802 24.5898 22.606 24.2553C22.8232 24.0323 22.9318 23.6978 23.149 23.4748C23.3662 23.1403 23.4748 22.6943 23.3662 22.3599C23.2576 21.8024 21.9544 18.7919 21.6286 18.1229C21.4113 17.7884 21.1941 17.6769 20.8683 17.5654H20.5425C20.3253 17.5654 19.9995 17.5654 19.6737 17.5654C19.4565 17.5654 19.2393 17.6769 19.0221 17.6769L18.9135 17.7884C18.6963 17.8999 18.4791 18.1229 18.2619 18.2344C18.0447 18.4574 17.9361 18.6804 17.7189 18.9034C16.9586 19.9069 16.5242 21.1334 16.5242 22.3599C16.5242 23.2518 16.7414 24.1438 17.0672 24.9243L17.1758 25.2588C18.1533 27.3773 19.4565 29.2728 21.1941 30.9453L21.6286 31.3913C21.9544 31.7258 22.2802 31.9488 22.4974 32.2833C24.778 34.2902 27.3845 35.7397 30.3168 36.5202C30.6426 36.6317 31.077 36.6317 31.4028 36.7432C31.7286 36.7432 32.163 36.7432 32.4888 36.7432C33.0318 36.7432 33.6834 36.5202 34.1179 36.2972C34.4437 36.0742 34.6609 36.0742 34.8781 35.8512L35.0953 35.6282C35.3125 35.4052 35.5297 35.2937 35.7469 35.0707C35.9641 34.8477 36.1813 34.6247 36.2899 34.4017C36.5071 33.9557 36.6157 33.3982 36.7243 32.8408C36.7243 32.6178 36.7243 32.2833 36.7243 32.0603C36.7243 32.0603 36.6157 31.9488 36.3985 31.8373Z" fill="#A3195B"/>
</svg>
