<?xml version="1.0" standalone="no"?>
<!DOCTYPE svg PUBLIC "-//W3C//DTD SVG 20010904//EN"
 "http://www.w3.org/TR/2001/REC-SVG-20010904/DTD/svg10.dtd">
<svg version="1.0" xmlns="http://www.w3.org/2000/svg"
 width="700.000000pt" height="700.000000pt" viewBox="0 0 700.000000 700.000000"
 preserveAspectRatio="xMidYMid meet">
<metadata>
Created by potrace 1.11, written by Peter Selinger 2001-2013
</metadata>
<g transform="translate(0.000000,700.000000) scale(0.100000,-0.100000)"
fill="#000000" stroke="none">
<path d="M4090 6973 c0 -16 5 -80 10 -143 64 -745 495 -1302 1272 -1648 125
-55 336 -128 458 -158 41 -10 79 -21 83 -24 6 -5 -378 -854 -586 -1298 -10
-22 -15 -23 -76 -18 -37 4 -379 29 -761 56 -382 28 -1000 73 -1374 100 -373
28 -691 50 -707 50 l-29 0 0 -114 c0 -414 96 -917 247 -1301 344 -873 985
-1427 1770 -1530 144 -19 339 -19 513 0 1211 130 1964 1066 1992 2475 2 74 2
910 1 1858 l-3 1722 -1405 0 -1405 0 0 -27z"/>
<path d="M2411 5739 c-213 -23 -446 -90 -646 -188 -170 -83 -309 -177 -510
-344 l-29 -25 118 -136 c64 -75 121 -138 125 -140 4 -3 36 20 71 51 98 83 290
208 404 263 109 52 285 109 406 131 123 23 403 18 527 -9 169 -37 376 -120
516 -209 21 -13 40 -23 41 -21 1 2 57 67 124 145 l122 142 -92 57 c-356 220
-785 324 -1177 283z"/>
</g>
</svg>
