<svg width="221" height="57" viewBox="0 0 221 57" fill="none" xmlns="http://www.w3.org/2000/svg">
<path d="M34.8362 0.00732422L27.7067 21.794H22.2901L17.497 7.03918L12.5461 21.794H7.15957L0 0.00732422H5.22881L10.1496 15.3181L15.2883 0.00732422H19.9536L24.9345 15.4458L30.0131 0.00732422H34.8362Z" fill="#A3195B"/>
<path d="M48.2843 0.00732422H43.2433V21.8016H48.2843V0.00732422Z" fill="#A3195B"/>
<path d="M79.041 0.00732422V21.794H74.9015L64.0382 8.56424V21.794H59.0573V0.00732422H63.2268L74.0601 13.2371V0.00732422H79.041Z" fill="#A3195B"/>
<path d="M105.973 17.7447V21.794H89.8137V0.00732422H105.973V4.04913H94.8247V8.78211H105.973V12.7037H94.8247V17.7447H105.973Z" fill="#A3195B"/>
<path d="M136.137 21.794L136.107 8.72201L129.691 19.4952H127.423L121.037 8.99998V21.794H116.304V0.00732422H120.481L128.64 13.5451L136.663 0.00732422H140.81L140.87 21.794H136.137Z" fill="#A3195B"/>
<path d="M165.992 17.1214H155.873L153.942 21.7942H148.773L158.487 0H163.468L173.212 21.7942H167.923L165.992 17.1214ZM164.407 13.2974L160.951 4.95085L157.496 13.2974H164.407Z" fill="#A3195B"/>
<path d="M184.511 4.10924H177.539V0.00732422H196.531V4.10924H189.56V21.794H184.511V4.10924Z" fill="#A3195B"/>
<path d="M221 17.7447V21.794H204.84V0.00732422H221V4.04913H209.859V8.78211H221V12.7037H209.859V17.7447H221Z" fill="#A3195B"/>
<path d="M221 30.5994H0.969162V34.0102H221V30.5994Z" fill="#A3195B"/>
<path d="M3.45594 49.6063H1.81067V56.7208H3.45594V49.6063Z" fill="#A3195B"/>
<path d="M9.06047 50.9436H6.78413V49.6063H12.9821V50.9436H10.7057V56.7208H9.06047V50.9436Z" fill="#A3195B"/>
<path d="M16.0921 49.6063H17.4444L17.3317 52.4912H16.1897L16.0921 49.6063Z" fill="#A3195B"/>
<path d="M21.9219 56.6153C21.3961 56.4651 20.9754 56.2622 20.6598 56.0218L21.2158 54.7822C21.5163 55.0076 21.8844 55.1879 22.3051 55.3231C22.7258 55.4584 23.1465 55.526 23.5672 55.526C24.033 55.526 24.3786 55.4584 24.604 55.3156C24.8293 55.1729 24.942 54.9926 24.942 54.7597C24.942 54.5944 24.8744 54.4517 24.7467 54.339C24.6115 54.2263 24.4462 54.1361 24.2358 54.0685C24.0255 54.0009 23.7475 53.9258 23.3944 53.8431C22.8535 53.7154 22.4103 53.5877 22.0647 53.46C21.7191 53.3323 21.4261 53.1219 21.1782 52.844C20.9303 52.5585 20.8026 52.1829 20.8026 51.702C20.8026 51.2888 20.9153 50.9132 21.1406 50.5827C21.366 50.2446 21.7041 49.9816 22.1548 49.7863C22.6056 49.591 23.154 49.4933 23.8076 49.4933C24.2584 49.4933 24.7016 49.5459 25.1374 49.6586C25.5731 49.7638 25.9487 49.9215 26.2718 50.1244L25.7609 51.3715C25.1073 51.0034 24.4462 50.8155 23.7926 50.8155C23.3343 50.8155 22.9887 50.8907 22.7709 51.0409C22.553 51.1912 22.4403 51.3865 22.4403 51.6269C22.4403 51.8748 22.568 52.0551 22.816 52.1678C23.0714 52.288 23.4545 52.4007 23.9804 52.5209C24.5213 52.6486 24.9646 52.7764 25.3102 52.9116C25.6557 53.0393 25.9487 53.2421 26.1967 53.5201C26.4446 53.7981 26.5723 54.1737 26.5723 54.647C26.5723 55.0527 26.4596 55.4283 26.2342 55.7589C26.0088 56.0969 25.6633 56.3599 25.2125 56.5552C24.7617 56.7505 24.2058 56.8482 23.5522 56.8482C22.9887 56.8407 22.4403 56.7656 21.9219 56.6153Z" fill="#A3195B"/>
<path d="M40.9586 55.3986V56.7208H35.4518V49.6063H40.8234V50.9286H37.0896V52.4686H40.3877V53.7533H37.0896V55.3986H40.9586Z" fill="#A3195B"/>
<path d="M49.3956 55.1957H46.09L45.4589 56.7208H43.7686L46.9389 49.6063H48.5692L51.747 56.7208H50.0191L49.3956 55.1957ZM48.8772 53.9486L47.7503 51.2216L46.6234 53.9486H48.8772Z" fill="#A3195B"/>
<path d="M55.6387 56.6153C55.1128 56.4651 54.6921 56.2622 54.3766 56.0218L54.9325 54.7822C55.233 55.0076 55.6011 55.1879 56.0218 55.3231C56.4425 55.4584 56.8632 55.526 57.284 55.526C57.7497 55.526 58.0953 55.4584 58.3207 55.3156C58.5461 55.1729 58.6588 54.9926 58.6588 54.7597C58.6588 54.5944 58.5912 54.4517 58.4634 54.339C58.3282 54.2263 58.1629 54.1361 57.9526 54.0685C57.7422 54.0009 57.4643 53.9258 57.1112 53.8431C56.5703 53.7154 56.127 53.5877 55.7814 53.46C55.4358 53.3323 55.1428 53.1219 54.8949 52.844C54.647 52.5585 54.5193 52.1829 54.5193 51.702C54.5193 51.2888 54.632 50.9132 54.8574 50.5827C55.0827 50.2446 55.4208 49.9816 55.8716 49.7863C56.3223 49.591 56.8708 49.4933 57.5244 49.4933C57.9751 49.4933 58.4184 49.5459 58.8541 49.6586C59.2898 49.7638 59.6655 49.9215 59.9885 50.1244L59.4776 51.3715C58.824 51.0034 58.1629 50.8155 57.5093 50.8155C57.0511 50.8155 56.7055 50.8907 56.4876 51.0409C56.2697 51.1912 56.1571 51.3865 56.1571 51.6269C56.1571 51.8748 56.2848 52.0551 56.5402 52.1678C56.7956 52.288 57.1788 52.4007 57.7047 52.5209C58.2456 52.6486 58.6888 52.7764 59.0344 52.9116C59.38 53.0393 59.673 53.2421 59.9209 53.5201C60.1688 53.7981 60.289 54.1737 60.289 54.647C60.289 55.0527 60.1763 55.4283 59.9509 55.7589C59.7256 56.0969 59.38 56.3599 58.9292 56.5552C58.4785 56.7505 57.9225 56.8482 57.2689 56.8482C56.7055 56.8407 56.1646 56.7656 55.6387 56.6153Z" fill="#A3195B"/>
<path d="M67.1185 54.1966V56.7208H65.4732V54.1815L62.7161 49.6063H64.4665L66.3597 52.7616L68.2604 49.6063H69.8832L67.1185 54.1966Z" fill="#A3195B"/>
<path d="M79.7991 50.9436H77.5227V49.6063H83.7207V50.9436H81.4443V56.7208H79.7991V50.9436Z" fill="#A3195B"/>
<path d="M88.3937 56.3602C87.8002 56.0447 87.3344 55.6015 87.0039 55.0455C86.6658 54.4896 86.5005 53.8585 86.5005 53.1598C86.5005 52.4612 86.6658 51.8376 87.0039 51.2742C87.3344 50.7182 87.8002 50.275 88.3937 49.9594C88.9872 49.6439 89.6558 49.4786 90.3921 49.4786C91.1283 49.4786 91.7969 49.6364 92.3829 49.9594C92.9689 50.275 93.4347 50.7182 93.7728 51.2742C94.1109 51.8376 94.2836 52.4612 94.2836 53.1598C94.2836 53.8585 94.1109 54.4896 93.7728 55.0455C93.4347 55.6015 92.9689 56.0447 92.3829 56.3602C91.7969 56.6758 91.1283 56.8335 90.3921 56.8335C89.6558 56.8335 88.9872 56.6833 88.3937 56.3602ZM91.5265 55.1507C91.8646 54.9554 92.1275 54.6924 92.3228 54.3393C92.5182 53.9937 92.6158 53.6031 92.6158 53.1598C92.6158 52.7241 92.5182 52.3259 92.3228 51.9804C92.1275 51.6348 91.8646 51.3643 91.5265 51.169C91.1884 50.9737 90.8053 50.876 90.3846 50.876C89.9639 50.876 89.5807 50.9737 89.2502 51.169C88.9121 51.3643 88.6416 51.6348 88.4538 51.9804C88.2585 52.3259 88.1683 52.7166 88.1683 53.1598C88.1683 53.6031 88.266 53.9937 88.4538 54.3393C88.6491 54.6849 88.9121 54.9554 89.2502 55.1507C89.5882 55.346 89.9714 55.4437 90.3846 55.4437C90.7978 55.4437 91.1884 55.346 91.5265 55.1507Z" fill="#A3195B"/>
<path d="M104.712 56.3676C104.126 56.0521 103.667 55.6163 103.329 55.0529C102.991 54.4969 102.826 53.8659 102.826 53.1597C102.826 52.4535 102.991 51.8224 103.329 51.2665C103.667 50.7106 104.126 50.2748 104.712 49.9593C105.298 49.6438 105.959 49.486 106.687 49.486C107.303 49.486 107.859 49.5912 108.355 49.809C108.851 50.0269 109.272 50.3349 109.61 50.7406L108.551 51.7173C108.07 51.1613 107.476 50.8833 106.763 50.8833C106.319 50.8833 105.929 50.981 105.583 51.1763C105.237 51.3717 104.967 51.6421 104.772 51.9877C104.584 52.3333 104.486 52.724 104.486 53.1672C104.486 53.6105 104.584 54.0011 104.772 54.3467C104.967 54.6923 105.237 54.9627 105.583 55.1581C105.929 55.3534 106.319 55.451 106.763 55.451C107.476 55.451 108.07 55.1656 108.551 54.6096L109.61 55.5863C109.272 55.9995 108.851 56.315 108.348 56.5329C107.852 56.7507 107.288 56.8559 106.672 56.8559C105.951 56.8409 105.298 56.6831 104.712 56.3676Z" fill="#A3195B"/>
<path d="M119.684 49.6063V56.7208H118.039V53.8059H114.808V56.7208H113.163V49.6063H114.808V52.4085H118.039V49.6063H119.684Z" fill="#A3195B"/>
<path d="M125.259 56.3602C124.665 56.0447 124.199 55.6015 123.869 55.0455C123.531 54.4896 123.365 53.8585 123.365 53.1598C123.365 52.4612 123.531 51.8376 123.869 51.2742C124.207 50.7182 124.665 50.275 125.259 49.9594C125.852 49.6439 126.521 49.4786 127.257 49.4786C127.993 49.4786 128.662 49.6364 129.248 49.9594C129.834 50.275 130.3 50.7182 130.638 51.2742C130.976 51.8376 131.149 52.4612 131.149 53.1598C131.149 53.8585 130.976 54.4896 130.638 55.0455C130.3 55.6015 129.834 56.0447 129.248 56.3602C128.662 56.6758 127.993 56.8335 127.257 56.8335C126.521 56.841 125.852 56.6833 125.259 56.3602ZM128.399 55.1507C128.737 54.9554 129 54.6924 129.195 54.3393C129.391 53.9937 129.488 53.6031 129.488 53.1598C129.488 52.7241 129.391 52.3259 129.195 51.9804C129 51.6348 128.737 51.3643 128.399 51.169C128.061 50.9737 127.678 50.876 127.257 50.876C126.836 50.876 126.453 50.9737 126.123 51.169C125.784 51.3643 125.514 51.6348 125.326 51.9804C125.131 52.3259 125.041 52.7166 125.041 53.1598C125.041 53.6031 125.138 53.9937 125.326 54.3393C125.522 54.6849 125.784 54.9554 126.123 55.1507C126.461 55.346 126.844 55.4437 127.257 55.4437C127.678 55.4362 128.053 55.346 128.399 55.1507Z" fill="#A3195B"/>
<path d="M136.28 56.3602C135.686 56.0447 135.22 55.6015 134.89 55.0455C134.552 54.4896 134.386 53.8585 134.386 53.1598C134.386 52.4612 134.552 51.8376 134.89 51.2742C135.228 50.7182 135.686 50.275 136.28 49.9594C136.873 49.6439 137.542 49.4786 138.278 49.4786C139.014 49.4786 139.683 49.6364 140.269 49.9594C140.855 50.275 141.321 50.7182 141.659 51.2742C141.997 51.8376 142.17 52.4612 142.17 53.1598C142.17 53.8585 141.997 54.4896 141.659 55.0455C141.321 55.6015 140.855 56.0447 140.269 56.3602C139.683 56.6758 139.014 56.8335 138.278 56.8335C137.542 56.8335 136.873 56.6833 136.28 56.3602ZM139.412 55.1507C139.75 54.9554 140.013 54.6924 140.209 54.3393C140.404 53.9937 140.502 53.6031 140.502 53.1598C140.502 52.7241 140.404 52.3259 140.209 51.9804C140.013 51.6348 139.75 51.3643 139.412 51.169C139.074 50.9737 138.691 50.876 138.27 50.876C137.85 50.876 137.467 50.9737 137.136 51.169C136.798 51.3643 136.528 51.6348 136.34 51.9804C136.144 52.3259 136.054 52.7166 136.054 53.1598C136.054 53.6031 136.152 53.9937 136.34 54.3393C136.535 54.6849 136.798 54.9554 137.136 55.1507C137.474 55.346 137.857 55.4437 138.27 55.4437C138.699 55.4362 139.074 55.346 139.412 55.1507Z" fill="#A3195B"/>
<path d="M146.549 56.6153C146.024 56.4651 145.603 56.2622 145.28 56.0218L145.843 54.7822C146.144 55.0076 146.512 55.1879 146.933 55.3231C147.353 55.4584 147.774 55.526 148.195 55.526C148.66 55.526 149.006 55.4584 149.231 55.3156C149.457 55.1729 149.57 54.9926 149.57 54.7597C149.57 54.5944 149.502 54.4517 149.374 54.339C149.239 54.2263 149.074 54.1361 148.863 54.0685C148.66 54.0009 148.375 53.9258 148.022 53.8431C147.481 53.7154 147.038 53.5877 146.692 53.46C146.347 53.3323 146.054 53.1219 145.806 52.844C145.558 52.5585 145.438 52.1829 145.438 51.702C145.438 51.2888 145.55 50.9132 145.776 50.5827C146.001 50.2446 146.339 49.9816 146.79 49.7863C147.241 49.591 147.789 49.4933 148.443 49.4933C148.893 49.4933 149.337 49.5459 149.772 49.6586C150.208 49.7638 150.584 49.9215 150.907 50.1244L150.396 51.3715C149.742 51.0034 149.081 50.8155 148.428 50.8155C147.969 50.8155 147.624 50.8907 147.406 51.0409C147.188 51.1912 147.075 51.3865 147.075 51.6269C147.075 51.8748 147.203 52.0551 147.458 52.1678C147.714 52.288 148.097 52.4007 148.623 52.5209C149.164 52.6486 149.607 52.7764 149.953 52.9116C150.298 53.0393 150.591 53.2421 150.839 53.5201C151.087 53.7981 151.207 54.1737 151.207 54.647C151.207 55.0527 151.095 55.4283 150.869 55.7589C150.644 56.0969 150.298 56.3599 149.847 56.5552C149.397 56.7505 148.841 56.8482 148.187 56.8482C147.624 56.8407 147.075 56.7656 146.549 56.6153Z" fill="#A3195B"/>
<path d="M160.275 55.3986V56.7208H154.768V49.6063H160.147V50.9286H156.406V52.4686H159.704V53.7533H156.406V55.3986H160.275Z" fill="#A3195B"/>
<path d="M174.024 55.1957H170.718L170.087 56.7208H168.397L171.567 49.6063H173.197L176.375 56.7208H174.647L174.024 55.1957ZM173.505 53.9486L172.378 51.2216L171.251 53.9486H173.505Z" fill="#A3195B"/>
<path d="M195.629 49.6063L193.3 56.7208H191.535L189.972 51.9052L188.357 56.7208H186.599L184.263 49.6063H185.968L187.576 54.6023L189.251 49.6063H190.776L192.399 54.6473L194.052 49.6063H195.629Z" fill="#A3195B"/>
<path d="M200.633 49.6063H198.988V56.7208H200.633V49.6063Z" fill="#A3195B"/>
<path d="M211.278 49.6063V56.7208H209.926L206.38 52.401V56.7208H204.757V49.6063H206.117L209.656 53.9261V49.6063H211.278Z" fill="#A3195B"/>
<path d="M220.918 55.3986V56.7208H215.411V49.6063H220.782V50.9286H217.049V52.4686H220.347V53.7533H217.049V55.3986H220.918Z" fill="#A3195B"/>
</svg>
