<svg width="42" height="42" viewBox="0 0 42 42" fill="none" xmlns="http://www.w3.org/2000/svg">
<path d="M41.3866 0H0V41.3866H41.3866V0Z" fill="#E9C8AC"/>
<path d="M24.5576 0C24.5576 10.0623 35.5532 11.9872 35.5532 11.9872L30.663 22.6328L41.435 20.7565V0H24.5576Z" fill="#62A060"/>
<path d="M20.5814 11.3261C21.0675 10.7525 21.5536 10.1887 22.0494 9.61506C20.0273 8.24425 17.8204 7.53455 15.5357 7.53455C12.6094 7.53455 9.81917 8.70119 7.38867 10.9081C7.99144 11.6567 8.51642 12.2108 8.84697 12.59C10.8789 10.7331 13.1733 9.76089 15.5357 9.76089C17.2857 9.75116 18.987 10.2956 20.5814 11.3261Z" fill="#A3195B"/>
<path d="M41.4358 20.6398C41.4358 31.3243 35.3109 36.4089 27.8249 36.4089C20.339 36.4089 14.2725 29.3313 14.2725 18.6565L41.4358 20.6398Z" fill="#A3195B"/>
</svg>
