<svg width="140" height="22" viewBox="0 0 140 22" fill="none" xmlns="http://www.w3.org/2000/svg">
<path d="M22.3456 0.330566L17.8615 14.0333H14.4547L11.4401 4.75326L8.32622 14.0333H4.93832L0.435303 0.330566H3.72397L6.81891 9.96032L10.0509 0.330566H12.9852L16.1179 10.0406L19.3121 0.330566H22.3456Z" fill="#02090F"/>
<path d="M30.8035 0.330566H27.633V14.0381H30.8035V0.330566Z" fill="#02090F"/>
<path d="M50.1481 0.330566V14.0333H47.5445L40.7121 5.71245V14.0333H37.5793V0.330566H40.2017L47.0153 8.65146V0.330566H50.1481Z" fill="#02090F"/>
<path d="M67.0875 11.4865V14.0333H56.9239V0.330566H67.0875V2.87267H60.0755V5.84948H67.0875V8.31598H60.0755V11.4865H67.0875Z" fill="#02090F"/>
<path d="M86.0588 14.0333L86.0399 5.81168L82.0047 12.5875H80.5777L76.5614 5.98651V14.0333H73.5846V0.330566H76.2117L81.3432 8.84519L86.3896 0.330566H88.9978L89.0356 14.0333H86.0588Z" fill="#02090F"/>
<path d="M104.836 11.0947H98.4717L97.2573 14.0337H94.0064L100.116 0.326172H103.249L109.377 14.0337H106.051L104.836 11.0947ZM103.839 8.6896L101.666 3.44001L99.4923 8.6896H103.839Z" fill="#02090F"/>
<path d="M116.484 2.91047H112.099V0.330566H124.044V2.91047H119.659V14.0333H116.484V2.91047Z" fill="#02090F"/>
<path d="M139.434 11.4865V14.0333H129.27V0.330566H139.434V2.87267H132.426V5.84948H139.434V8.31598H132.426V11.4865H139.434Z" fill="#02090F"/>
<path d="M139.434 19.5713H1.04483V21.7165H139.434V19.5713Z" fill="#02090F"/>
</svg>
